PathFileType  4	(X/Y/Z) /root/TVB/SAM4Dcap/opencap/output/Data/subject2_Session0/MarkerData/mmpose_0.8/2-cameras/PreAugmentation
DataRate	CameraRate	NumFrames	NumMarkers	Units	OrigDataRate	OrigDataStartFrame	OrigNumFrames
60.0	60.0	14	20	m	60.0	144	164
Frame#	Time	Neck			RShoulder			RElbow			RWrist			LShoulder			LElbow			LWrist			midHip			RHip			RKnee			RAnkle			LHip			LKnee			LAnkle			LBigToe			LSmallToe			LHeel			RBigToe			RSmallToe			RHeel			
		X1	Y1	Z1	X2	Y2	Z2	X3	Y3	Z3	X4	Y4	Z4	X5	Y5	Z5	X6	Y6	Z6	X7	Y7	Z7	X8	Y8	Z8	X9	Y9	Z9	X10	Y10	Z10	X11	Y11	Z11	X12	Y12	Z12	X13	Y13	Z13	X14	Y14	Z14	X15	Y15	Z15	X16	Y16	Z16	X17	Y17	Z17	X18	Y18	Z18	X19	Y19	Z19	X20	Y20	Z20	

144	2.3833333	1.0785700	1.4994000	-0.2430600	1.0895100	1.5126400	-0.0721500	0.9104700	1.3914300	0.1629900	1.0138200	1.2169700	0.2913200	1.0823100	1.4820800	-0.4166000	0.9769100	1.2359800	-0.5871300	1.1912900	1.1187800	-0.5550900	1.0500600	0.9679000	-0.2393800	1.0605000	0.9695000	-0.1182700	1.0210000	0.4871100	-0.0900800	0.9165500	-0.0186600	-0.0386000	1.0470800	0.9648400	-0.3618100	1.0148900	0.4820900	-0.4096000	0.9569700	-0.0275300	-0.4487300	1.0551200	-0.1509200	-0.5434700	1.0516600	-0.1471200	-0.5403600	0.9286500	-0.0562400	-0.4127400	1.0495700	-0.1454000	-0.0096700	1.0436800	-0.1409800	-0.0103600	0.8739100	-0.0516700	-0.0579500
145	2.4000000	1.0826200	1.4932300	-0.2444300	1.0906900	1.5075900	-0.0716800	0.9004700	1.3817200	0.1479300	0.9973000	1.1962800	0.2675400	1.0894800	1.4745300	-0.4197500	0.9774300	1.2334900	-0.5759400	1.1847800	1.1093800	-0.5447400	1.0478100	0.9672700	-0.2389900	1.0587700	0.9706500	-0.1182300	1.0218100	0.4801700	-0.0875000	0.9253100	-0.0250500	-0.0392100	1.0442900	0.9625200	-0.3610500	1.0203800	0.4820700	-0.4070600	0.9655200	-0.0178100	-0.4419600	1.0592600	-0.1388800	-0.5442400	1.0561800	-0.1343700	-0.5405800	0.9407200	-0.0489100	-0.4029100	1.0509100	-0.1461000	-0.0035500	1.0450300	-0.1420300	-0.0046400	0.8854200	-0.0610800	-0.0526800
146	2.4166667	1.0856400	1.4855600	-0.2404300	1.0936600	1.4985200	-0.0685600	0.8924800	1.3657000	0.1368100	0.9866300	1.1756300	0.2475000	1.0924800	1.4686600	-0.4148500	0.9770000	1.2228300	-0.5675400	1.1843500	1.0963400	-0.5288100	1.0497200	0.9589100	-0.2350400	1.0625300	0.9613800	-0.1139700	1.0285300	0.4754800	-0.0831800	0.9336300	-0.0465000	-0.0332200	1.0443800	0.9546700	-0.3574700	1.0247100	0.4815800	-0.4046600	0.9643000	-0.0350700	-0.4476500	1.0642600	-0.1451600	-0.5437600	1.0597100	-0.1413200	-0.5400000	0.9337000	-0.0658800	-0.4163800	1.0714700	-0.1503900	0.0066300	1.0662300	-0.1467600	0.0058800	0.8913900	-0.0806800	-0.0490300
147	2.4333333	1.0892800	1.4751600	-0.2415900	1.0940600	1.4908600	-0.0685200	0.8819800	1.3509900	0.1183000	0.9794200	1.1530700	0.2256900	1.0995300	1.4554300	-0.4171600	0.9772800	1.2122400	-0.5548700	1.1837200	1.0871100	-0.5055300	1.0458400	0.9527000	-0.2325600	1.0550400	0.9559200	-0.1104600	1.0321900	0.4726000	-0.0799000	0.9340100	-0.0436600	-0.0310600	1.0442300	0.9482200	-0.3559700	1.0261000	0.4684600	-0.4044700	0.9647000	-0.0441700	-0.4443200	1.0720500	-0.1543500	-0.5491100	1.0681100	-0.1503000	-0.5453300	0.9388600	-0.0737200	-0.4085400	1.0669000	-0.1530600	0.0133300	1.0610100	-0.1490600	0.0127000	0.8920700	-0.0793600	-0.0472400
148	2.4500000	1.0905300	1.4628600	-0.2408400	1.0947800	1.4764500	-0.0680700	0.8777700	1.3295500	0.1167700	0.9770500	1.1290700	0.2047000	1.1012500	1.4453700	-0.4160300	0.9762100	1.2038300	-0.5494300	1.1722100	1.0752800	-0.4946200	1.0454700	0.9401600	-0.2261400	1.0552700	0.9408700	-0.1033000	1.0359800	0.4647300	-0.0743600	0.9361100	-0.0569500	-0.0260300	1.0433600	0.9374500	-0.3504000	1.0349100	0.4665200	-0.4025800	0.9682100	-0.0532100	-0.4413700	1.0783400	-0.1604000	-0.5468900	1.0748500	-0.1563900	-0.5433600	0.9389100	-0.0832600	-0.4075900	1.0797900	-0.1695400	0.0152100	1.0749100	-0.1664900	0.0142700	0.8860000	-0.0991900	-0.0376000
149	2.4666667	1.0931800	1.4474100	-0.2400500	1.0969300	1.4605200	-0.0658000	0.8874000	1.3045200	0.1130900	0.9775600	1.1057400	0.1874900	1.1046100	1.4303100	-0.4167300	0.9803000	1.1872600	-0.5443500	1.1660500	1.0648300	-0.4808400	1.0479400	0.9246700	-0.2204300	1.0556500	0.9267000	-0.0989500	1.0392300	0.4463700	-0.0692600	0.9401500	-0.0667400	-0.0186400	1.0478600	0.9222800	-0.3432300	1.0415800	0.4543700	-0.4000300	0.9674200	-0.0661900	-0.4406700	1.0806300	-0.1740500	-0.5470500	1.0773000	-0.1698700	-0.5436500	0.9348800	-0.0953000	-0.4072500	1.0799800	-0.1797800	0.0160500	1.0750500	-0.1768000	0.0152600	0.8870400	-0.1103400	-0.0327600
150	2.4833333	1.0941300	1.4298200	-0.2355100	1.0973900	1.4422100	-0.0605600	0.8828700	1.2761800	0.1057600	0.9808400	1.0792300	0.1684100	1.1062400	1.4139000	-0.4129200	0.9872800	1.1641500	-0.5370400	1.1652100	1.0488900	-0.4771300	1.0502600	0.9088500	-0.2152900	1.0566700	0.9088700	-0.0936600	1.0455300	0.4292700	-0.0678800	0.9431300	-0.0815800	-0.0127300	1.0517500	0.9081800	-0.3382800	1.0393500	0.4302100	-0.4041200	0.9689600	-0.0829200	-0.4401000	1.0890200	-0.1830900	-0.5448100	1.0853400	-0.1794000	-0.5416900	0.9370000	-0.1128400	-0.4088000	1.0915800	-0.1913200	0.0191900	1.0863600	-0.1884700	0.0185400	0.8920100	-0.1241100	-0.0198200
151	2.5000000	1.0980000	1.4090900	-0.2348000	1.0986000	1.4219000	-0.0620900	0.8923400	1.2508100	0.1002400	0.9866500	1.0495000	0.1529300	1.1122300	1.3924800	-0.4098100	0.9891600	1.1424900	-0.5350900	1.1661300	1.0275500	-0.4630200	1.0445100	0.8892800	-0.2106800	1.0508500	0.8896500	-0.0875700	1.0496600	0.4127400	-0.0618300	0.9453200	-0.0927900	-0.0116200	1.0463300	0.8878000	-0.3352100	1.0544000	0.4235200	-0.4001500	0.9730600	-0.1007000	-0.4395500	1.0952500	-0.2022700	-0.5451900	1.0917200	-0.1989900	-0.5422900	0.9398500	-0.1366600	-0.4091600	1.0919700	-0.2025900	0.0261400	1.0871200	-0.1998800	0.0252900	0.9005200	-0.1337700	-0.0243100
152	2.5166667	1.0997800	1.3862000	-0.2311200	1.0988400	1.3993000	-0.0570800	0.8945000	1.2176600	0.0955600	0.9898300	1.0212800	0.1394400	1.1157600	1.3694800	-0.4074900	0.9893400	1.1219200	-0.5266000	1.1803300	1.0071600	-0.4441700	1.0426500	0.8591300	-0.2058300	1.0476400	0.8618500	-0.0814100	1.0611500	0.3880900	-0.0551000	0.9440100	-0.1147000	-0.0091800	1.0460100	0.8560600	-0.3316500	1.0602100	0.3995600	-0.4006500	0.9773200	-0.1216000	-0.4413900	1.0974800	-0.2201900	-0.5406300	1.0934700	-0.2169500	-0.5374700	0.9423300	-0.1546600	-0.4112100	1.0918700	-0.2205600	0.0304600	1.0869200	-0.2179300	0.0295500	0.8942500	-0.1562200	-0.0206500
153	2.5333333	1.0986900	1.3589800	-0.2288500	1.0983700	1.3708700	-0.0522000	0.8880500	1.1835500	0.0780900	1.0076800	0.9917000	0.1255300	1.1145100	1.3435600	-0.4079100	0.9966400	1.0924000	-0.5258900	1.1991000	0.9777900	-0.4305100	1.0423000	0.8266500	-0.2014500	1.0463100	0.8301900	-0.0771500	1.0688100	0.3595200	-0.0482000	0.9471200	-0.1310300	0.0002500	1.0466300	0.8225600	-0.3271500	1.0696800	0.3715800	-0.4003100	0.9800300	-0.1388400	-0.4375700	1.1043100	-0.2361400	-0.5394000	1.1005200	-0.2327700	-0.5363500	0.9444800	-0.1732300	-0.4089500	1.0881800	-0.2395800	0.0383500	1.0830600	-0.2367400	0.0375100	0.8972000	-0.1746500	-0.0057500
154	2.5500000	1.1023200	1.3292400	-0.2271800	1.0992500	1.3411500	-0.0535600	0.8874700	1.1444600	0.0742900	1.0160500	0.9584300	0.1160700	1.1203300	1.3143000	-0.4030300	1.0009400	1.0633000	-0.5238900	1.2049000	0.9488400	-0.4210700	1.0401800	0.7970100	-0.1980900	1.0459200	0.8006300	-0.0735600	1.0729400	0.3323500	-0.0448500	0.9460000	-0.1571200	0.0030900	1.0428800	0.7930600	-0.3241000	1.0799200	0.3523500	-0.4034000	0.9815400	-0.1640800	-0.4380100	1.1073700	-0.2643800	-0.5345100	1.1034900	-0.2611400	-0.5317100	0.9448000	-0.2015200	-0.4126100	1.0789900	-0.2615600	0.0425800	1.0729200	-0.2585800	0.0413400	0.8999000	-0.1982400	-0.0025400
155	2.5666667	1.1007500	1.2975300	-0.2271300	1.0969500	1.3098200	-0.0526200	0.8978900	1.1034600	0.0702700	1.0320400	0.9256300	0.0961400	1.1196000	1.2822100	-0.4038500	1.0117300	1.0289700	-0.5209300	1.2148200	0.9227100	-0.4144600	1.0359900	0.7660700	-0.1938100	1.0411900	0.7700700	-0.0712600	1.0748100	0.2997500	-0.0334700	0.9483800	-0.1864800	0.0129000	1.0387200	0.7620900	-0.3178500	1.0862000	0.3122600	-0.4067800	0.9852100	-0.1897200	-0.4384500	1.1115100	-0.2883200	-0.5304700	1.1075300	-0.2850700	-0.5277800	0.9476600	-0.2270000	-0.4133100	1.0820600	-0.2914900	0.0577200	1.0766600	-0.2885900	0.0563200	0.9104600	-0.2197200	0.0052800
156	2.5833333	1.1039300	1.2624800	-0.2260300	1.0976500	1.2737600	-0.0499600	0.9030000	1.0577800	0.0726200	1.0505600	0.8910400	0.0877100	1.1255000	1.2486200	-0.4042600	1.0223000	0.9948200	-0.5199500	1.2232100	0.8942700	-0.4090700	1.0385800	0.7281900	-0.1954800	1.0447600	0.7331000	-0.0743000	1.0823900	0.2656800	-0.0253200	0.9489300	-0.2070200	0.0218300	1.0403100	0.7236500	-0.3181200	1.0987000	0.2782700	-0.4069400	0.9860200	-0.2240600	-0.4370200	1.1212200	-0.3171600	-0.5240800	1.1168200	-0.3142800	-0.5216000	0.9466300	-0.2580100	-0.4136000	1.0814200	-0.3142500	0.0686500	1.0762900	-0.3109000	0.0673700	0.9085000	-0.2434300	0.0131100
157	2.6000000	1.1039300	1.2256000	-0.2215200	1.0943400	1.2352900	-0.0453200	0.8965600	1.0100000	0.0621500	1.0675600	0.8555500	0.0722700	1.1287500	1.2132200	-0.3997600	1.0306300	0.9576600	-0.5171000	1.2320800	0.8616200	-0.4024100	1.0340700	0.6863700	-0.1885300	1.0377500	0.6899400	-0.0663800	1.0907300	0.2384900	-0.0188300	0.9452200	-0.2438300	0.0318000	1.0387000	0.6829400	-0.3121600	1.1143600	0.2529000	-0.4013900	0.9877600	-0.2500300	-0.4344400	1.1252700	-0.3446600	-0.5180900	1.1213900	-0.3417300	-0.5160000	0.9449000	-0.2843900	-0.4131800	1.0816700	-0.3471800	0.0788100	1.0769600	-0.3442400	0.0775900	0.8999900	-0.2786700	0.0227500
